Coordinates
version=1
nRows=32
nColumns=12
inDegrees=yes

Units are S.I. units (second, meters, Newtons, ...)
Angles are in degrees

endheader
time	SC_y	SC_z	SC_x	AC_y	AC_z	AC_x	GH_y	GH_z	GH_yy	EL_x	PS_y
       0.0              -46.19          22.37           41.0          54.58          1.954          16.59         -95.17          74.87         -69.93          79.59          149.7
  0.003197              -46.19          22.37           41.0          54.58          1.951          16.59         -95.16          74.87         -69.93          79.58          149.7
  0.006394              -46.19          22.37          41.01          54.58          1.948          16.59         -95.14          74.86         -69.94          79.58          149.7
   0.00959               -46.2          22.37          41.01          54.58          1.944          16.59         -95.13          74.85         -69.95          79.57          149.7
   0.01279               -46.2          22.37          41.02          54.58          1.941          16.58         -95.12          74.85         -69.96          79.56          149.7
   0.01598               -46.2          22.37          41.03          54.58          1.937          16.58          -95.1          74.84         -69.97          79.55          149.7
   0.01918               -46.2          22.37          41.03          54.58          1.932          16.58         -95.08          74.84         -69.98          79.54          149.7
   0.02238              -46.21          22.37          41.04          54.58          1.928          16.58         -95.07          74.83         -69.99          79.53          149.7
   0.02557              -46.21          22.37          41.05          54.58          1.923          16.58         -95.05          74.82          -70.0          79.51          149.7
   0.02877              -46.21          22.37          41.06          54.58          1.918          16.57         -95.03          74.81         -70.01           79.5          149.7
   0.03197              -46.22          22.37          41.07          54.58          1.912          16.57         -95.01           74.8         -70.02          79.49          149.7
   0.03517              -46.22          22.37          41.08          54.59          1.906          16.57         -94.98          74.79         -70.04          79.47          149.7
   0.03836              -46.22          22.37          41.09          54.59            1.9          16.56         -94.96          74.78         -70.05          79.45          149.7
   0.04156              -46.23          22.37           41.1          54.59          1.893          16.56         -94.93          74.77         -70.07          79.44          149.7
   0.04476              -46.23          22.37          41.12          54.59          1.885          16.56          -94.9          74.76         -70.08          79.42          149.7
   0.04795              -46.24          22.37          41.13          54.59          1.877          16.55         -94.87          74.75          -70.1           79.4          149.7
   0.05115              -46.24          22.37          41.15          54.59          1.868          16.55         -94.83          74.73         -70.12          79.37          149.7
   0.05435              -46.25          22.37          41.16          54.59          1.859          16.54          -94.8          74.72         -70.15          79.35          149.7
   0.05754              -46.26          22.37          41.18           54.6          1.848          16.54         -94.76           74.7         -70.17          79.32          149.7
   0.06074              -46.26          22.37           41.2           54.6          1.836          16.53         -94.71          74.68          -70.2          79.29          149.7
   0.06394              -46.27          22.37          41.22           54.6          1.824          16.53         -94.66          74.66         -70.23          79.26          149.7
   0.06713              -46.28          22.37          41.25           54.6           1.81          16.52         -94.61          74.64         -70.26          79.23          149.7
   0.07033              -46.29          22.37          41.28          54.61          1.794          16.51         -94.55          74.61         -70.29          79.19          149.7
   0.07353               -46.3          22.37          41.31          54.61          1.777           16.5         -94.48          74.58         -70.33          79.14          149.7
   0.07672              -46.31          22.37          41.34          54.61          1.758          16.49         -94.41          74.55         -70.38           79.1          149.7
   0.07992              -46.33          22.37          41.38          54.62          1.737          16.48         -94.32          74.52         -70.43          79.04          149.7
   0.08312              -46.34          22.37          41.42          54.62          1.713          16.47         -94.23          74.48         -70.48          78.98          149.7
   0.08631              -46.36          22.37          41.47          54.63          1.686          16.46         -94.13          74.44         -70.54          78.92          149.7
   0.08951              -46.38          22.37          41.52          54.63          1.656          16.44         -94.01          74.39         -70.61          78.84          149.7
   0.09271               -46.4          22.37          41.58          54.64          1.621          16.43         -93.88          74.33         -70.69          78.75          149.8
    0.0959              -46.42          22.37          41.65          54.65          1.582          16.41         -93.72          74.27         -70.78          78.65          149.8
    0.0991              -46.45          22.37          41.73          54.65          1.537          16.39         -93.55          74.19         -70.89          78.54          149.8
